<svg width="1690" height="217" viewBox="0 0 1690 217" fill="none" xmlns="http://www.w3.org/2000/svg">
<path d="M177.23 36.5775H109.157V216.033H68.073V36.5775H0V0.327026H177.23V36.5775Z" fill="white"/>
<path d="M351.46 177.984V216.033H203.618V0.327026H348.761V37.7759H245.002V89.0059H334.666V122.56H245.002V177.984H351.46Z" fill="white"/>
<path d="M425.231 77.9211V216.033H383.847V0.327026H415.035L526.89 141.135V0.327026H568.274V216.033H536.187L425.231 77.9211Z" fill="white"/>
<path d="M673.832 0.327026H709.218L791.386 216.033H748.802L690.026 58.1481L633.948 216.033H591.365L673.832 0.327026Z" fill="white"/>
<path d="M793.484 106.382C793.484 93.4998 795.883 80.6174 800.681 67.735C805.179 55.1522 812.077 43.7677 821.073 33.8812C830.07 23.9947 841.165 15.9057 854.06 9.61433C866.955 3.32292 881.949 0.327026 898.442 0.327026C917.935 0.327026 935.028 4.5213 949.422 13.2094C963.517 21.8976 974.312 32.9824 981.21 46.7636L949.422 68.6338C946.723 62.6419 943.125 57.5489 939.226 53.3546C935.328 49.4599 930.83 46.1644 926.331 43.7677C921.833 41.371 917.035 39.5734 911.937 38.3751C906.839 37.4763 902.041 36.8771 897.243 36.8771C886.747 36.8771 877.751 38.9743 869.954 43.1685C862.457 47.3628 855.859 52.7554 851.061 59.3464C845.663 66.237 842.065 73.7268 839.366 82.1154C836.667 90.8035 835.467 99.192 835.467 107.581C835.467 116.868 836.967 125.856 839.966 134.544C842.964 143.532 847.163 151.021 852.861 157.612C858.258 164.203 864.856 169.596 872.653 173.491C880.15 177.385 888.546 179.482 897.843 179.482C902.641 179.482 907.739 178.883 912.837 177.685C917.935 176.487 923.033 174.689 927.531 171.993C932.329 169.296 936.827 166.001 940.726 162.106C944.624 157.912 947.923 152.819 950.322 147.127L984.208 166.6C980.91 174.689 976.112 181.58 969.814 187.571C963.517 193.863 956.319 198.956 948.523 203.15C940.426 207.344 932.029 210.64 923.033 212.737C914.036 214.834 905.34 216.033 896.643 216.033C881.349 216.033 867.555 212.737 854.96 206.446C842.365 200.154 831.569 191.766 822.573 181.28C813.276 171.094 806.379 159.41 801.281 146.228C796.183 133.345 793.484 119.864 793.484 106.382Z" fill="white"/>
<path d="M1053.48 0.327026H1012.1V216.033H1053.48V0.327026Z" fill="white"/>
<path d="M1257.1 36.5775H1189.03V216.033H1147.94V36.5775H1079.87V0.327026H1257.1V36.5775Z" fill="white"/>
<path d="M1306.87 0.327026L1359.95 103.985L1413.93 0.327026H1458.61L1343.76 216.033H1300.58L1339.56 139.337L1261.89 0.327026H1306.87Z" fill="white"/>
<path fill-rule="evenodd" clip-rule="evenodd" d="M1575.7 216.359H1635.21L1517.89 1.72238C1516.97 0.643238 1515.61 0.00106298 1514.16 1.53486e-06C1512.37 -0.00141373 1510.72 0.976007 1509.86 2.5489C1488.25 42.0126 1392.81 216.359 1392.81 216.359H1451.07L1514.09 102.539L1575.7 216.359Z" fill="#6200FF"/>
<path fill-rule="evenodd" clip-rule="evenodd" d="M1646.47 216.359H1689.2C1689.2 216.359 1619.17 88.7177 1600.02 54.07C1598.84 51.9276 1597.68 50.6608 1595.23 50.6608C1592.78 50.6608 1591.47 52.5574 1590.72 54.2632L1574.14 84.5367L1646.47 216.359Z" fill="#6200FF"/>
</svg>
