<svg xmlns="http://www.w3.org/2000/svg" xmlns:xlink="http://www.w3.org/1999/xlink" width="1690" zoomAndPan="magnify" viewBox="0 0 1267.5 162.749997" height="217" preserveAspectRatio="xMidYMid meet" version="1.0"><defs><clipPath id="d835248d6e"><path d="M 0.921875 57.199219 L 412.554688 57.199219 L 412.554688 127.355469 L 0.921875 127.355469 Z M 0.921875 57.199219 " clip-rule="nonzero"/></clipPath><clipPath id="48c38ba1b9"><path d="M 247 57 L 412.753906 57 L 412.753906 110 L 247 110 Z M 247 57 " clip-rule="nonzero"/></clipPath><clipPath id="9d7b65d654"><path d="M 229 57 L 412.753906 57 L 412.753906 113 L 229 113 Z M 229 57 " clip-rule="nonzero"/></clipPath></defs><g clip-path="url(#d835248d6e)"><path fill="#40bb6a" d="M 115.132812 77.359375 C 115.132812 77.359375 -30.015625 80.496094 6.949219 102.964844 C 28.746094 116.214844 55.25 112.746094 84.605469 109.277344 C 105.027344 106.863281 126.828125 104.449219 149.390625 107.667969 C 204.386719 115.503906 335.109375 148.425781 395.511719 108.710938 C 455.914062 69 336.820312 83.109375 330.554688 72.136719 C 324.289062 61.160156 285.523438 56.457031 253.96875 57.503906 C 222.417969 58.546875 235.039062 66.386719 212.5 72.65625 C 202.28125 75.5 180.761719 74.691406 160.542969 73.882812 C 136.15625 72.90625 113.652344 71.933594 115.132812 77.359375 " fill-opacity="1" fill-rule="nonzero"/></g><path fill="#328a56" d="M 309.785156 96.503906 C 303.976562 96.503906 299.265625 94.75 299.265625 92.585938 C 299.265625 90.421875 303.976562 88.667969 309.785156 88.667969 C 312.925781 88.667969 315.746094 89.179688 317.671875 89.992188 L 317.671875 92.640625 L 318.875 92.640625 L 318.875 90.613281 C 319.78125 91.191406 320.300781 91.867188 320.300781 92.585938 C 320.300781 94.75 315.59375 96.503906 309.785156 96.503906 " fill-opacity="1" fill-rule="nonzero"/><path fill="#3b393d" d="M 317.671875 92.640625 L 318.875 92.640625 L 318.875 -0.1875 L 317.671875 -0.1875 Z M 317.671875 92.640625 " fill-opacity="1" fill-rule="nonzero"/><path fill="#f9a72c" d="M 318.875 -0.1875 C 318.875 -0.1875 329.617188 14.335938 331.871094 19.308594 C 331.871094 19.308594 320.078125 14.222656 318.875 18.175781 L 318.875 -0.1875 " fill-opacity="1" fill-rule="nonzero"/><g clip-path="url(#48c38ba1b9)"><path fill="#ebebea" d="M 395.023438 109.03125 C 395.1875 108.925781 395.351562 108.816406 395.511719 108.710938 C 407.664062 100.722656 412.550781 94.910156 412.554688 90.636719 C 412.550781 94.910156 407.664062 100.722656 395.511719 108.710938 C 395.351562 108.816406 395.1875 108.925781 395.023438 109.03125 M 247.128906 57.886719 C 247.132812 57.886719 247.136719 57.886719 247.144531 57.886719 C 247.136719 57.886719 247.132812 57.886719 247.128906 57.886719 M 247.167969 57.882812 C 247.171875 57.882812 247.175781 57.882812 247.183594 57.882812 C 247.175781 57.882812 247.171875 57.882812 247.167969 57.882812 M 247.203125 57.878906 C 247.210938 57.878906 247.214844 57.878906 247.21875 57.878906 C 247.214844 57.878906 247.210938 57.878906 247.203125 57.878906 M 247.246094 57.875 C 247.25 57.875 247.253906 57.875 247.261719 57.875 C 247.253906 57.875 247.25 57.875 247.246094 57.875 M 247.277344 57.875 C 247.285156 57.871094 247.292969 57.871094 247.304688 57.871094 C 247.292969 57.871094 247.289062 57.871094 247.277344 57.875 M 247.3125 57.871094 C 247.324219 57.871094 247.335938 57.871094 247.34375 57.871094 C 247.332031 57.871094 247.324219 57.871094 247.3125 57.871094 M 247.347656 57.867188 C 247.355469 57.867188 247.367188 57.867188 247.378906 57.867188 C 247.367188 57.867188 247.355469 57.867188 247.347656 57.867188 M 247.390625 57.863281 C 247.398438 57.863281 247.40625 57.863281 247.417969 57.863281 C 247.40625 57.863281 247.398438 57.863281 247.390625 57.863281 M 247.425781 57.863281 C 249.257812 57.714844 251.292969 57.597656 253.554688 57.515625 C 251.289062 57.597656 249.257812 57.714844 247.425781 57.863281 M 253.554688 57.515625 C 253.585938 57.515625 253.613281 57.515625 253.644531 57.515625 C 253.613281 57.515625 253.585938 57.515625 253.554688 57.515625 M 253.652344 57.511719 C 253.664062 57.511719 253.675781 57.511719 253.691406 57.511719 C 253.675781 57.511719 253.664062 57.511719 253.652344 57.511719 M 253.699219 57.511719 C 253.710938 57.511719 253.722656 57.511719 253.734375 57.511719 C 253.722656 57.511719 253.710938 57.511719 253.699219 57.511719 M 253.75 57.511719 C 253.761719 57.511719 253.769531 57.511719 253.78125 57.511719 C 253.773438 57.511719 253.761719 57.511719 253.75 57.511719 M 253.796875 57.507812 C 253.804688 57.507812 253.816406 57.507812 253.828125 57.507812 C 253.816406 57.507812 253.804688 57.507812 253.796875 57.507812 M 253.84375 57.507812 C 253.855469 57.507812 253.867188 57.507812 253.875 57.507812 C 253.863281 57.507812 253.859375 57.507812 253.84375 57.507812 M 253.898438 57.503906 C 253.90625 57.503906 253.914062 57.503906 253.921875 57.503906 C 253.914062 57.503906 253.90625 57.503906 253.898438 57.503906 " fill-opacity="1" fill-rule="nonzero"/></g><g clip-path="url(#9d7b65d654)"><path fill="#3aac64" d="M 389.265625 112.425781 C 386.304688 107.324219 378.511719 100.808594 362.074219 92.640625 C 337.234375 80.300781 328.46875 76.640625 319.636719 76.640625 C 319.382812 76.640625 319.128906 76.644531 318.875 76.648438 L 318.875 64.503906 C 324.667969 66.585938 328.835938 69.121094 330.554688 72.136719 C 335.558594 80.898438 412.566406 73.660156 412.554688 90.636719 C 412.550781 94.910156 407.664062 100.722656 395.511719 108.710938 C 395.351562 108.816406 395.1875 108.925781 395.023438 109.03125 C 393.167969 110.230469 391.246094 111.355469 389.265625 112.425781 M 257.273438 83.742188 C 240.203125 83.742188 243.894531 79.25 250.152344 74.765625 C 256.410156 70.273438 265.230469 65.785156 258.40625 65.785156 C 256.730469 65.785156 254.113281 66.058594 250.28125 66.664062 C 247.558594 67.097656 245.074219 67.296875 242.808594 67.296875 C 236.871094 67.296875 232.425781 65.921875 229.113281 63.730469 C 232.289062 61.046875 235.820312 58.835938 247.128906 57.886719 C 247.132812 57.886719 247.136719 57.886719 247.144531 57.886719 C 247.152344 57.882812 247.160156 57.882812 247.167969 57.882812 C 247.171875 57.882812 247.175781 57.882812 247.183594 57.882812 C 247.191406 57.882812 247.195312 57.882812 247.203125 57.878906 C 247.210938 57.878906 247.214844 57.878906 247.21875 57.878906 C 247.226562 57.878906 247.238281 57.878906 247.246094 57.875 C 247.25 57.875 247.253906 57.875 247.261719 57.875 C 247.265625 57.875 247.273438 57.875 247.277344 57.875 C 247.289062 57.871094 247.292969 57.871094 247.304688 57.871094 C 247.308594 57.871094 247.308594 57.871094 247.3125 57.871094 C 247.324219 57.871094 247.332031 57.871094 247.34375 57.871094 C 247.34375 57.867188 247.34375 57.867188 247.347656 57.867188 C 247.355469 57.867188 247.367188 57.867188 247.378906 57.867188 C 247.382812 57.863281 247.386719 57.863281 247.390625 57.863281 C 247.398438 57.863281 247.40625 57.863281 247.417969 57.863281 C 247.417969 57.863281 247.421875 57.863281 247.425781 57.863281 C 249.257812 57.714844 251.289062 57.597656 253.554688 57.515625 C 253.585938 57.515625 253.613281 57.515625 253.644531 57.515625 C 253.648438 57.515625 253.648438 57.515625 253.652344 57.511719 C 253.664062 57.511719 253.675781 57.511719 253.691406 57.511719 C 253.695312 57.511719 253.695312 57.511719 253.699219 57.511719 C 253.710938 57.511719 253.722656 57.511719 253.734375 57.511719 C 253.738281 57.511719 253.746094 57.511719 253.75 57.511719 C 253.761719 57.511719 253.773438 57.511719 253.78125 57.511719 C 253.785156 57.511719 253.789062 57.511719 253.796875 57.507812 C 253.804688 57.507812 253.816406 57.507812 253.828125 57.507812 C 253.832031 57.507812 253.839844 57.507812 253.84375 57.507812 C 253.859375 57.507812 253.863281 57.507812 253.875 57.507812 C 253.882812 57.503906 253.890625 57.503906 253.898438 57.503906 C 253.90625 57.503906 253.914062 57.503906 253.921875 57.503906 C 253.9375 57.503906 253.953125 57.503906 253.96875 57.503906 C 256.824219 57.410156 259.738281 57.363281 262.683594 57.363281 C 282.738281 57.363281 304.171875 59.5625 317.671875 64.089844 L 317.671875 76.699219 C 308.460938 77.226562 297.90625 81.261719 268.3125 83.300781 C 263.921875 83.601562 260.277344 83.742188 257.273438 83.742188 " fill-opacity="1" fill-rule="nonzero"/></g><path fill="#383639" d="M 317.671875 76.699219 L 317.671875 64.089844 C 318.082031 64.226562 318.480469 64.367188 318.875 64.503906 L 318.875 76.648438 C 318.472656 76.65625 318.074219 76.671875 317.671875 76.699219 " fill-opacity="1" fill-rule="nonzero"/></svg>